<svg width="16" height="16" viewBox="0 0 16 16" fill="none" xmlns="http://www.w3.org/2000/svg">
<g id=" arrow-up">
<path id="Icon" fill-rule="evenodd" clip-rule="evenodd" d="M3.48793 7.09341C3.72393 7.37608 4.14393 7.41475 4.4266 7.17875L7.33327 4.75675V12.6667C7.33327 13.0347 7.63193 13.3334 7.99993 13.3334C8.36793 13.3334 8.6666 13.0347 8.6666 12.6667V4.75675L11.5733 7.17875C11.8566 7.41475 12.2766 7.37608 12.5119 7.09341C12.7479 6.81075 12.7099 6.39008 12.4266 6.15475L8.4266 2.82141C8.39527 2.79475 8.35793 2.78208 8.32327 2.76208C8.29593 2.74608 8.27193 2.72741 8.24193 2.71541C8.16393 2.68475 8.0826 2.66675 7.99993 2.66675C7.91727 2.66675 7.83593 2.68475 7.75793 2.71541C7.72793 2.72741 7.70393 2.74608 7.6766 2.76208C7.64193 2.78208 7.6046 2.79475 7.57327 2.82141L3.57327 6.15475C3.2906 6.39008 3.25193 6.81075 3.48793 7.09341Z" fill="#FF6A00"/>
</g>
</svg>
