<svg width="16" height="16" viewBox="0 0 16 16" fill="none" xmlns="http://www.w3.org/2000/svg">
<g id=" clock">
<path id="Icon" fill-rule="evenodd" clip-rule="evenodd" d="M10.6667 7.33337H8.66666V5.33337C8.66666 4.96471 8.36799 4.66671 7.99999 4.66671C7.63199 4.66671 7.33333 4.96471 7.33333 5.33337V8.00004C7.33333 8.36871 7.63199 8.66671 7.99999 8.66671H10.6667C11.0353 8.66671 11.3333 8.36871 11.3333 8.00004C11.3333 7.63137 11.0353 7.33337 10.6667 7.33337ZM7.99999 13.3334C5.05933 13.3334 2.66666 10.9407 2.66666 8.00004C2.66666 5.05937 5.05933 2.66671 7.99999 2.66671C10.9407 2.66671 13.3333 5.05937 13.3333 8.00004C13.3333 10.9407 10.9407 13.3334 7.99999 13.3334ZM8 1.33337C4.324 1.33337 1.33333 4.32404 1.33333 8.00004C1.33333 11.676 4.324 14.6667 8 14.6667C11.676 14.6667 14.6667 11.676 14.6667 8.00004C14.6667 4.32404 11.676 1.33337 8 1.33337Z" fill="#001323"/>
</g>
</svg>
