<svg width="24" height="25" viewBox="0 0 24 25" fill="none" xmlns="http://www.w3.org/2000/svg">
<g id=" close">
<path id="Icon" fill-rule="evenodd" clip-rule="evenodd" d="M13.414 12.3342L17.707 8.04123C18.098 7.65023 18.098 7.01823 17.707 6.62723C17.316 6.23623 16.684 6.23623 16.293 6.62723L12 10.9202L7.70701 6.62723C7.31601 6.23623 6.68401 6.23623 6.29301 6.62723C5.90201 7.01823 5.90201 7.65023 6.29301 8.04123L10.586 12.3342L6.29301 16.6272C5.90201 17.0182 5.90201 17.6502 6.29301 18.0412C6.48801 18.2362 6.74401 18.3342 7.00001 18.3342C7.25601 18.3342 7.51201 18.2362 7.70701 18.0412L12 13.7482L16.293 18.0412C16.488 18.2362 16.744 18.3342 17 18.3342C17.256 18.3342 17.512 18.2362 17.707 18.0412C18.098 17.6502 18.098 17.0182 17.707 16.6272L13.414 12.3342Z" fill="white"/>
</g>
</svg>
