<svg width="13" height="14" viewBox="0 0 13 14" fill="none" xmlns="http://www.w3.org/2000/svg">
<g id="Steering wheel">
<path id="Shape" fill-rule="evenodd" clip-rule="evenodd" d="M11.9167 7C11.9167 9.99154 9.49155 12.4167 6.50001 12.4167C3.50847 12.4167 1.08334 9.99154 1.08334 7C1.08334 4.00846 3.50847 1.58334 6.50001 1.58334C9.49155 1.58334 11.9167 4.00846 11.9167 7ZM5.82979 11.2818C5.47295 10.406 4.45293 8.03292 3.79168 7.8125C3.32919 7.65834 2.69119 7.67968 2.22734 7.72668C2.53629 9.55645 3.9921 10.9965 5.82979 11.2818ZM2.34513 5.76527C2.87677 3.97357 4.53577 2.66667 6.50001 2.66667C8.46425 2.66667 10.1232 3.97357 10.6549 5.76527C9.79971 5.60501 8.26486 5.375 6.50001 5.375C4.73516 5.375 3.20031 5.60501 2.34513 5.76527ZM10.7727 7.72668C10.3088 7.67968 9.67084 7.65834 9.20834 7.8125C8.54709 8.03292 7.52708 10.406 7.17023 11.2818C9.00792 10.9965 10.4637 9.55645 10.7727 7.72668Z" fill="#FB6856"/>
</g>
</svg>
