<svg width="61" height="73" viewBox="0 0 61 73" fill="none" xmlns="http://www.w3.org/2000/svg">
<g filter="url(#filter0_d_2169_14218)">
<circle cx="30.5357" cy="25.7628" r="23.9874" fill="white"/>
<path fill-rule="evenodd" clip-rule="evenodd" d="M30.4997 19.6665C27.8464 19.6665 25.6872 21.8257 25.6872 24.479C25.6872 27.1323 27.8464 29.2915 30.4997 29.2915C33.153 29.2915 35.3122 27.1323 35.3122 24.479C35.3122 21.8257 33.153 19.6665 30.4997 19.6665M30.4997 35.7082C24.3076 35.7082 19.2705 30.6711 19.2705 24.479C19.2705 18.2869 24.3076 13.2498 30.4997 13.2498C36.6918 13.2498 41.7288 18.2869 41.7288 24.479C41.7288 30.6711 36.6918 35.7082 30.4997 35.7082M30.4997 0.416504C16.3477 0.416504 4.83301 11.8189 4.83301 25.8361C4.83301 43.3985 27.4486 62.9854 28.4111 63.81C29.0142 64.3265 29.7553 64.5832 30.4997 64.5832C31.244 64.5832 31.9851 64.3265 32.5883 63.81C33.5508 62.9854 56.1663 43.3985 56.1663 25.8361C56.1663 11.8189 44.6516 0.416504 30.4997 0.416504" fill="#DE4141"/>
</g>
<defs>
<filter id="filter0_d_2169_14218" x="0.833008" y="0.416504" width="59.3335" height="72.1665" filterUnits="userSpaceOnUse" color-interpolation-filters="sRGB">
<feFlood flood-opacity="0" result="BackgroundImageFix"/>
<feColorMatrix in="SourceAlpha" type="matrix" values="0 0 0 0 0 0 0 0 0 0 0 0 0 0 0 0 0 0 127 0" result="hardAlpha"/>
<feOffset dy="4"/>
<feGaussianBlur stdDeviation="2"/>
<feComposite in2="hardAlpha" operator="out"/>
<feColorMatrix type="matrix" values="0 0 0 0 0 0 0 0 0 0 0 0 0 0 0 0 0 0 0.25 0"/>
<feBlend mode="normal" in2="BackgroundImageFix" result="effect1_dropShadow_2169_14218"/>
<feBlend mode="normal" in="SourceGraphic" in2="effect1_dropShadow_2169_14218" result="shape"/>
</filter>
</defs>
</svg>
