<svg width="14" height="14" viewBox="0 0 14 14" fill="none" xmlns="http://www.w3.org/2000/svg">
<g id=" heart">
<path id="Icon" fill-rule="evenodd" clip-rule="evenodd" d="M7 12.25C6.84483 12.25 6.69666 12.1888 6.587 12.0785L2.05625 7.54021C0.86858 6.35021 0.86858 4.41412 2.05625 3.22412C2.62966 2.65012 3.39558 2.33337 4.21166 2.33337C5.02775 2.33337 5.79366 2.65012 6.36708 3.22412L7 3.85821L7.63233 3.22471C8.20633 2.65012 8.97225 2.33337 9.78833 2.33337C10.6044 2.33337 11.3703 2.65012 11.9437 3.22412C13.1314 4.41412 13.1314 6.35021 11.9443 7.54021L7.413 12.0791C7.30333 12.1888 7.15516 12.25 7 12.25Z" fill="#FB6856"/>
</g>
</svg>
