<svg width="24" height="24" viewBox="0 0 24 24" fill="none" xmlns="http://www.w3.org/2000/svg">
<g id=" message-square">
<path id="Icon" fill-rule="evenodd" clip-rule="evenodd" d="M14 9H13V8C13 7.45 12.55 7 12 7C11.45 7 11 7.45 11 8V9H10C9.45 9 9 9.45 9 10C9 10.55 9.45 11 10 11H11V12C11 12.55 11.45 13 12 13C12.55 13 13 12.55 13 12V11H14C14.55 11 15 10.55 15 10C15 9.45 14.55 9 14 9ZM20 15C20 15.551 19.551 16 19 16H8.554C8.011 16 7.477 16.148 7.01 16.428L4 18.234V5C4 4.449 4.449 4 5 4H19C19.551 4 20 4.449 20 5V15ZM19 2H5C3.346 2 2 3.346 2 5V20C2 20.36 2.194 20.693 2.507 20.87C2.66 20.957 2.83 21 3 21C3.178 21 3.356 20.953 3.515 20.857L8.039 18.143C8.195 18.049 8.373 18 8.554 18H19C20.654 18 22 16.654 22 15V5C22 3.346 20.654 2 19 2Z" fill="white"/>
</g>
</svg>
