<svg width="20" height="20" viewBox="0 0 20 20" fill="none" xmlns="http://www.w3.org/2000/svg">
<g id=" pin">
<path id="Icon" fill-rule="evenodd" clip-rule="evenodd" d="M10 9.16633C9.31084 9.16633 8.75 8.6055 8.75 7.91633C8.75 7.22716 9.31084 6.66633 10 6.66633C10.6892 6.66633 11.25 7.22716 11.25 7.91633C11.25 8.6055 10.6892 9.16633 10 9.16633ZM10 4.99966C8.39167 4.99966 7.08334 6.308 7.08334 7.91633C7.08334 9.52466 8.39167 10.833 10 10.833C11.6083 10.833 12.9167 9.52466 12.9167 7.91633C12.9167 6.308 11.6083 4.99966 10 4.99966ZM10 16.3717C8.60417 15.0517 5 11.3459 5 8.26841C5 5.54758 7.2425 3.33341 10 3.33341C12.7575 3.33341 15 5.54758 15 8.26841C15 11.3459 11.3958 15.0517 10 16.3717ZM10 1.66675C6.32417 1.66675 3.33334 4.62758 3.33334 8.26841C3.33334 12.8309 9.2075 17.9176 9.4575 18.1317C9.61417 18.2659 9.80667 18.3334 10 18.3334C10.1933 18.3334 10.3858 18.2659 10.5425 18.1317C10.7925 17.9176 16.6667 12.8309 16.6667 8.26841C16.6667 4.62758 13.6758 1.66675 10 1.66675Z" fill="#FB812A"/>
</g>
</svg>
