<svg width="65" height="26" viewBox="0 0 65 26" fill="none" xmlns="http://www.w3.org/2000/svg">
<g id="Group 7">
<path id="Vector" d="M10.5534 19.8103L10.5563 19.8121C10.8097 19.963 11.1001 20.0468 11.4317 20.0468C12.3755 20.0468 12.8031 19.5038 12.9738 19.1798L12.9738 19.1798L12.9751 19.1774C13.175 18.7851 13.2968 18.1634 12.818 17.418L9.71039 12.3944C10.5922 11.8907 11.3028 11.2109 11.8169 10.3552C12.3633 9.44591 12.6432 8.40163 12.6432 7.26058C12.6432 6.06485 12.373 4.9792 11.826 4.05167C11.2813 3.12807 10.5147 2.38347 9.55356 1.86202C8.60001 1.34024 7.50558 1.07734 6.31623 1.07734H2.24526C1.76841 1.07734 1.34603 1.24455 1.02613 1.566C0.706289 1.8874 0.540234 2.31136 0.540234 2.78968V18.3262C0.540234 18.8046 0.706289 19.2285 1.02613 19.5499C1.34916 19.8745 1.80213 20.0303 2.24423 20.0303C2.686 20.0303 3.13736 19.8747 3.45665 19.5494C3.77617 19.2281 3.94206 18.8043 3.94206 18.3262V13.2455H6.2953L9.9588 19.1615C10.1049 19.4346 10.308 19.6586 10.5534 19.8103ZM8.94335 8.60826C8.69181 9.00656 8.3574 9.31299 7.90296 9.54518C7.44854 9.77737 6.92095 9.90343 6.31623 9.90343H3.94206V4.39458H6.31623C6.91171 4.39458 7.43768 4.5202 7.89056 4.7589C8.33799 5.00732 8.68051 5.32986 8.93205 5.75084C9.18368 6.18015 9.31544 6.66514 9.31544 7.25231C9.31544 7.7719 9.19267 8.21348 8.94335 8.60826Z" fill="#fff" stroke="#fff" stroke-width="0.4"/>
<path id="Vector_2" d="M15.0886 9.71233L15.0883 9.71283C14.5275 10.7545 14.2502 11.9616 14.2502 13.3034C14.2502 14.6479 14.5451 15.8393 15.1394 16.897C15.7327 17.9533 16.5645 18.7891 17.5989 19.3855C18.6365 19.9838 19.8397 20.2799 21.1694 20.2799C21.9281 20.2799 22.7322 20.1258 23.5559 19.8303C24.3871 19.535 25.0831 19.1445 25.6229 18.6803C26.1152 18.2867 26.2147 17.817 26.2051 17.4874L26.205 17.4846C26.1859 17.0442 25.9844 16.6482 25.6203 16.3276C25.3269 16.0619 24.9476 15.9198 24.5262 15.9381C24.1345 15.9479 23.7912 16.0809 23.4669 16.3253L23.461 16.3297L23.4555 16.3346C23.2264 16.5351 22.8989 16.7139 22.4639 16.857L22.4639 16.857L22.461 16.858C21.2505 17.2766 20.1099 17.1017 19.246 16.6092C18.6943 16.289 18.2675 15.8527 17.9475 15.2803C17.8424 15.0913 17.7563 14.8932 17.684 14.6851H25.487C25.9218 14.6851 26.3171 14.5353 26.6277 14.2422L26.6277 14.2422L26.63 14.24C26.9431 13.9349 27.1016 13.5347 27.1016 13.0802C27.1016 11.814 26.8495 10.6509 26.349 9.6365L26.349 9.63649C25.8395 8.60402 25.099 7.78223 24.1538 7.19183C23.2043 6.59874 22.0807 6.31025 20.8404 6.31025C19.5993 6.31025 18.4107 6.61563 17.4213 7.22416C16.4361 7.83005 15.6556 8.66637 15.0886 9.71233ZM23.7173 11.6324H17.7523C17.7973 11.5077 17.8474 11.3875 17.9025 11.2768L17.9664 11.1483L17.9584 11.1403C18.225 10.6324 18.5829 10.2474 19.0458 9.96122C19.5437 9.65333 20.1474 9.49527 20.8404 9.49527C21.4993 9.49527 22.0356 9.64447 22.4831 9.93396C22.9419 10.2337 23.2803 10.6331 23.5374 11.1646C23.6054 11.3172 23.666 11.4723 23.7173 11.6324Z" fill="#fff" stroke="#fff" stroke-width="0.4"/>
<path id="Vector_3" d="M31.3415 19.3968L31.3433 19.3981C31.9471 19.8289 32.6381 20.0386 33.4086 20.0386H33.606C34.1042 20.0386 34.5451 19.9037 34.9069 19.6147L34.9083 19.6136C35.3009 19.2942 35.5084 18.8568 35.5084 18.3428C35.5084 17.8965 35.3801 17.5101 35.1073 17.1886L35.1066 17.1879C34.812 16.8441 34.4184 16.6717 33.9679 16.6717H33.9597H33.4086C33.3672 16.6717 33.3336 16.666 33.295 16.6431C33.2527 16.6179 33.1892 16.5626 33.1097 16.4356C32.9472 16.1726 32.8602 15.8089 32.8602 15.3264V2.76488C32.8602 2.29073 32.7051 1.86557 32.3913 1.55C32.0711 1.22373 31.6207 1.07494 31.1855 1.07838C30.7509 1.08182 30.3082 1.23719 30.0013 1.55002C29.6876 1.86558 29.5324 2.29073 29.5324 2.76488V15.3264C29.5324 16.2003 29.6844 16.9976 29.9939 17.6888C30.3113 18.4041 30.7685 18.978 31.3415 19.3968Z" fill="#fff" stroke="#fff" stroke-width="0.4"/>
<path id="Vector_4" d="M49.8513 13.1774H49.8513L49.8513 13.1748C49.8344 11.8549 49.5226 10.6562 48.9289 9.6079L48.9283 9.60684C48.3277 8.56132 47.5058 7.7181 46.4807 7.10515L46.4801 7.10478C45.4436 6.49014 44.273 6.18428 43.0062 6.18428C41.7403 6.18428 40.5366 6.48966 39.4993 7.10478C38.4662 7.71746 37.6357 8.56061 37.0347 9.60684C36.4317 10.6566 36.1281 11.8651 36.1281 13.1774C36.1281 14.4888 36.4148 15.6627 36.9914 16.7193C37.5672 17.7744 38.3644 18.6097 39.3475 19.2229L39.3481 19.2233C40.3441 19.8392 41.4913 20.154 42.743 20.154C43.9953 20.154 45.0428 19.8555 46.0046 19.2739L46.0051 19.2736C46.1923 19.1596 46.372 19.0379 46.5467 18.9059C46.6295 19.1644 46.7725 19.3909 46.9728 19.5789C47.6274 20.1986 48.7437 20.1708 49.3621 19.5777L49.3633 19.5765C49.6844 19.2633 49.8595 18.8302 49.8595 18.3507V18.2682L49.8513 18.2599V13.1774ZM46.0632 15.1219C45.7591 15.672 45.3542 16.1144 44.8567 16.4318H44.84L44.7911 16.4626C44.2763 16.7869 43.6893 16.9442 42.9979 16.9442C42.3076 16.9442 41.7275 16.7873 41.1943 16.4612L41.1932 16.4605C40.6483 16.132 40.2285 15.6952 39.9078 15.1215C39.5965 14.5584 39.4313 13.9063 39.4313 13.1857C39.4313 12.4638 39.5971 11.7957 39.9074 11.2422L39.9075 11.242C40.2281 10.6684 40.6481 10.231 41.2021 9.89383L41.2025 9.8936C41.7369 9.56672 42.3255 9.40235 43.0062 9.40235C43.687 9.40235 44.2751 9.56683 44.8005 9.89292C45.3287 10.2207 45.7497 10.674 46.0632 11.2412L46.0638 11.2422C46.3735 11.7946 46.5317 12.454 46.5317 13.1857C46.5317 13.9162 46.374 14.5598 46.0632 15.1219Z" fill="#fff" stroke="#fff" stroke-width="0.4"/>
<path id="Vector_5" d="M63.7417 7.30415C63.5758 6.92684 63.248 6.62801 62.8219 6.44896C62.3828 6.25147 61.9501 6.21644 61.5654 6.35913C61.1803 6.50193 60.8724 6.81193 60.6622 7.24797L60.6621 7.24792L60.6594 7.25385L57.4064 14.599L53.8926 7.20764L53.8926 7.20763L53.891 7.20442C53.6906 6.80174 53.3831 6.50602 52.9914 6.36203C52.5975 6.21721 52.1819 6.2423 51.7244 6.44062L51.7243 6.44033L51.7141 6.44541C51.3124 6.64726 51.0285 6.94742 50.8773 7.33681L50.8773 7.33681L50.8766 7.33859C50.7703 7.62019 50.7001 8.07294 50.9559 8.63276L50.9558 8.63279L50.958 8.63726L55.7202 18.4128L53.6861 23.0118C53.4809 23.452 53.4361 23.8791 53.5816 24.2786C53.7276 24.6796 54.0451 24.9869 54.5078 25.2015L54.5078 25.2016L54.5121 25.2034C54.7767 25.3187 55.018 25.3771 55.2499 25.3771C55.4342 25.3771 55.6994 25.3417 55.9631 25.1905C56.2294 25.0377 56.4802 24.7747 56.6438 24.3443L63.6731 8.59814L63.6732 8.59814L63.6743 8.5955C63.8715 8.13598 63.8969 7.70078 63.7427 7.30376L63.7417 7.30415Z" fill="#fff" stroke="#fff" stroke-width="0.4"/>
</g>
</svg>
