<?xml version="1.0" encoding="UTF-8"?>
<svg id="Layer_1" xmlns="http://www.w3.org/2000/svg" version="1.1" xmlns:xlink="http://www.w3.org/1999/xlink" viewBox="0 0 66.56 98.84">
  <!-- Generator: Adobe Illustrator 29.1.0, SVG Export Plug-In . SVG Version: 2.1.0 Build 142)  -->
  <defs>
    <style>
      .st0 {
        opacity: .85;
      }

      .st0, .st1 {
        fill: #fff;
      }

      .st2 {
        fill: none;
      }
    </style>
    <clipPath id="clippath">
      <path class="st2" d="M39.88,39.24v13.08s0,0,0,0h-6.54s-.72,0-.72,0c-10.44,0-18.9-8.46-18.9-18.9v-14.5c0-3.23,2.62-5.84,5.84-5.84h20.31s0,0,0,0c7.22,0,13.08,5.86,13.08,13.08h0c0,7.22-5.86,13.08-13.08,13.08,0,0,0,0,0,0ZM39.88,52.32h0s0,0,0,0h0Z"/>
    </clipPath>
    <clipPath id="clippath-1">
      <path class="st2" d="M64.04,54.05l-5.86-5.86c-.94-.94-.91-2.45.04-3.38,5.5-5.41,8.62-13.24,7.64-21.76C64.39,10.33,52.13,0,39.32,0c-8.33,0-19.01,0-27.04,0C5.85,0,.64,5.21.64,11.65v21.05c0,18.06,14.64,32.7,32.7,32.7h3.63c1.61,0,2.91-1.3,2.91-2.91v-10.17s0,0,0,0h-6.54s-.73,0-.73,0c-10.44,0-18.89-8.46-18.89-18.89v-14.52c0-3.22,2.61-5.82,5.82-5.82h20.33s0,0,0,0c7.22,0,13.08,5.86,13.08,13.08h0c0,7.22-5.86,13.08-13.08,13.08h0s0,13.08,0,13.08c0,0,0,0,0,0,0,0,.2,0,.5,0,2.21.01,4.33.9,5.9,2.46l8.69,8.69c2.87,2.87,7.73,2.52,10.11-1.05,1.63-2.45,1.05-6.29-1.03-8.37Z"/>
    </clipPath>
  </defs>
  <path class="st0" d="M29.24,26.14h8.21c1.34,0,2.44,1.09,2.44,2.44v10.64h-7.61c-3.02,0-5.47-2.45-5.47-5.47v-5.17c0-1.34,1.09-2.44,2.44-2.44Z"/>
  <g>
    <path class="st1" d="M9.83,84.86c.96-.54,1.72-1.27,2.28-2.19.59-.97.89-2.09.89-3.32,0-1.29-.3-2.45-.88-3.44-.59-.99-1.41-1.78-2.45-2.35-1.02-.56-2.2-.84-3.48-.84H1.79c-.51,0-.97.18-1.3.52-.34.34-.52.79-.52,1.31v16.68c0,.51.18.97.52,1.31.68.68,1.92.69,2.61,0,.34-.34.52-.79.52-1.31v-5.46h2.56l3.95,6.34c.16.3.38.53.65.7.27.16.59.25.94.25,1.02,0,1.47-.58,1.65-.93.17-.34.38-1.03-.16-1.87l-3.35-5.4ZM3.61,76.27h2.57c.65,0,1.2.13,1.7.4.49.26.85.61,1.13,1.07.28.46.41.99.41,1.62,0,.55-.13,1.03-.4,1.46-.27.43-.64.76-1.12,1.01-.49.25-1.07.38-1.72.38h-2.57v-5.94Z"/>
    <path class="st1" d="M24.96,79.17c-1.02-.63-2.22-.95-3.57-.95s-2.62.33-3.68.98c-1.06.65-1.9,1.55-2.51,2.67-.6,1.11-.9,2.41-.9,3.84s.32,2.72.96,3.85c.64,1.13,1.53,2.03,2.65,2.66,1.11.63,2.41.96,3.84.96.82,0,1.68-.16,2.57-.48.9-.32,1.65-.74,2.22-1.23.42-.33.64-.79.62-1.28-.01-.32-.13-.8-.63-1.23-.31-.29-.72-.43-1.17-.41-.41.01-.79.14-1.15.42-.25.22-.61.41-1.08.57-.47.16-.94.24-1.39.24-.8,0-1.48-.17-2.08-.52-.6-.35-1.06-.81-1.4-1.43-.12-.21-.21-.43-.29-.66h8.43c.47,0,.9-.16,1.22-.48.33-.32.51-.75.51-1.23,0-1.37-.27-2.61-.81-3.69-.55-1.11-1.34-1.99-2.36-2.61ZM18.2,83.53c.29-.61.7-1.07,1.24-1.41.55-.34,1.19-.5,1.94-.5.71,0,1.29.15,1.78.47.5.32.87.76,1.14,1.33.08.16.14.34.2.51h-6.47c.05-.14.11-.27.17-.4Z"/>
    <path class="st1" d="M36.09,90.03c-.31-.36-.73-.55-1.22-.55h-.59c-.06,0-.17,0-.33-.26-.18-.29-.27-.7-.27-1.2v-13.48c0-.51-.17-.96-.51-1.3-.68-.68-1.91-.65-2.56,0-.33.33-.51.78-.51,1.3v13.48c0,.94.17,1.79.5,2.53.34.77.83,1.38,1.46,1.83.64.46,1.39.69,2.22.69h.21c.55,0,1.02-.15,1.39-.45.42-.34.64-.81.64-1.35,0-.48-.14-.89-.43-1.23Z"/>
    <path class="st1" d="M51.46,92.56c.35-.33.53-.79.53-1.3v-5.54s0,0,0-.01c-.02-1.41-.35-2.7-1-3.82-.64-1.12-1.53-2.02-2.64-2.68-1.11-.65-2.37-.99-3.74-.99s-2.66.33-3.78.98c-1.12.65-2.01,1.56-2.65,2.68-.65,1.12-.97,2.41-.97,3.83s.31,2.67.93,3.79c.62,1.13,1.47,2.03,2.54,2.68,1.07.66,2.3,1,3.65,1s2.48-.32,3.51-.94c.21-.12.41-.26.6-.4.09.28.25.53.46.73.7.66,1.9.63,2.56,0ZM47.91,87.8c-.34.62-.78,1.09-1.36,1.44-.57.35-1.2.52-1.95.52s-1.37-.17-1.95-.52c-.59-.35-1.04-.83-1.39-1.44-.35-.62-.52-1.3-.52-2.08s.17-1.48.51-2.09c.35-.61.81-1.09,1.4-1.45.58-.36,1.22-.53,1.95-.53s1.38.17,1.94.52c.58.36,1.03.84,1.37,1.45.34.6.5,1.31.5,2.09s-.17,1.47-.51,2.09Z"/>
    <path class="st1" d="M66.63,79.42c-.17-.41-.5-.72-.98-.91-.97-.43-1.85-.11-2.31.86l-3.52,7.91-3.8-7.96c-.28-.56-.68-.8-.97-.9-.29-.1-.75-.17-1.37.09-.43.22-.74.55-.89.95-.12.3-.2.78.09,1.38l5.14,10.49-2.2,4.94c-.23.48-.26.94-.11,1.36.15.42.48.75,1,.99.29.12.55.18.78.18.68,0,1.23-.41,1.49-1.1l7.58-16.9c.21-.5.24-.96.07-1.38Z"/>
    <path class="st1" d="M30.92,96.08c-.19,0-.38.05-.54.14-.04.02-.07.05-.11.07-.01-.04-.04-.07-.06-.1-.11-.12-.36-.12-.48,0-.06.06-.09.14-.09.24v2.05c0,.1.03.18.09.24.04.04.11.09.23.09.13,0,.2-.05.24-.09.06-.06.08-.14.08-.23v-1.33c0-.11.03-.2.1-.27.06-.08.16-.13.28-.16.13-.03.27-.04.43-.01.05,0,.1.01.14,0,.06,0,.11-.02.16-.05.05-.04.09-.1.1-.17.03-.13-.02-.25-.15-.33-.1-.07-.24-.1-.43-.1Z"/>
    <path class="st1" d="M32,95.25c-.08.08-.12.17-.12.29s.04.21.12.28c.08.08.17.12.28.12s.21-.04.28-.12.12-.17.12-.28-.04-.21-.12-.28c-.16-.15-.4-.15-.56,0Z"/>
    <path class="st1" d="M32.04,96.2c-.06.06-.09.14-.09.24v2.05c0,.09.03.17.09.24.06.06.14.1.24.1s.17-.03.23-.1c.06-.06.09-.14.09-.24v-2.05c0-.1-.03-.18-.1-.24-.13-.12-.34-.12-.47,0Z"/>
    <path class="st1" d="M35.34,95.15c-.06.06-.09.14-.09.24v.96c-.06-.05-.13-.09-.2-.13-.37-.19-.87-.17-1.22.05-.19.12-.35.29-.46.49-.11.2-.17.44-.17.7s.06.49.18.7c.12.21.28.37.48.49.2.12.43.18.69.18s.48-.06.69-.18c.2-.12.37-.28.49-.49s.18-.44.18-.7v-2.08c0-.1-.03-.18-.1-.24-.12-.12-.34-.12-.47,0ZM35.26,97.46c0,.15-.03.28-.09.39-.06.11-.15.21-.25.27-.21.12-.5.13-.72,0-.11-.06-.19-.15-.26-.27-.06-.12-.09-.24-.09-.39s.03-.28.09-.39c.06-.11.15-.2.26-.27.11-.06.23-.1.36-.1.14,0,.26.03.36.1s.19.15.25.27c.06.11.09.24.09.39Z"/>
    <path class="st1" d="M38.43,96.27c-.38-.23-.96-.23-1.34,0-.2.12-.35.28-.47.49-.11.2-.17.44-.17.71s.06.5.18.71c.12.21.28.37.49.49.21.12.45.17.71.17.15,0,.31-.03.47-.08.17-.06.3-.13.41-.22.09-.08.11-.17.11-.23,0-.08-.04-.16-.12-.22-.06-.05-.13-.07-.21-.07-.07,0-.14.03-.21.08-.05.04-.12.07-.21.11-.25.09-.48.05-.65-.05-.11-.07-.2-.16-.27-.27-.02-.04-.04-.08-.06-.13h1.58c.09,0,.17-.03.23-.09.06-.06.09-.13.09-.21,0-.26-.05-.49-.15-.68-.1-.2-.24-.36-.43-.48ZM37.16,97.06c.06-.11.14-.2.24-.27.19-.12.51-.13.7-.01.09.06.16.14.21.25.02.04.03.08.05.12h-1.23s.02-.06.04-.09Z"/>
    <path class="st1" d="M41.13,97.32c-.14-.07-.32-.13-.56-.18-.15-.03-.27-.06-.34-.09-.09-.04-.11-.07-.12-.08-.02-.02-.03-.05-.03-.09,0-.04,0-.07.08-.11.13-.08.4-.08.56-.02.07.02.14.07.2.13.06.06.13.1.22.12.09.01.17,0,.25-.05.09-.07.12-.15.12-.21,0-.06,0-.14-.08-.23-.1-.13-.24-.23-.4-.31-.17-.07-.35-.1-.57-.1-.17,0-.33.03-.48.08-.16.06-.29.15-.39.26-.1.12-.16.28-.16.46,0,.21.08.38.25.53.15.14.39.23.72.29.26.05.38.1.43.14.08.06.09.11.09.14,0,.04-.01.09-.09.14-.05.03-.15.07-.36.07-.12,0-.23-.02-.33-.06-.1-.04-.17-.09-.21-.14-.06-.07-.13-.11-.21-.11-.06,0-.15,0-.25.08-.07.06-.12.14-.12.22-.01.09.02.17.08.25.11.12.26.22.46.29.19.07.39.1.6.1.22,0,.41-.03.57-.1.17-.08.29-.17.38-.3.09-.13.14-.28.14-.44,0-.14-.03-.27-.1-.38-.07-.11-.18-.21-.33-.29Z"/>
    <path class="st1" d="M44,96.24c-.35-.19-.84-.2-1.2,0-.02.01-.04.03-.07.04v-.88c0-.09-.03-.18-.09-.24-.12-.12-.34-.12-.47,0-.06.06-.09.14-.09.24v3.1c0,.09.03.17.09.24.13.12.35.12.47,0,.06-.06.09-.14.09-.23v-1.3c0-.09.02-.17.07-.24.05-.07.12-.13.21-.18.19-.1.45-.09.63,0,.09.04.16.11.21.2.05.09.08.22.08.37v1.13c0,.09.03.17.09.23.06.07.14.1.24.1s.17-.03.23-.1c.06-.06.1-.14.1-.23v-1.13c0-.27-.05-.5-.16-.69-.11-.19-.25-.34-.44-.44Z"/>
    <path class="st1" d="M47.17,96.28c-.4-.24-.97-.24-1.38,0-.2.12-.37.29-.48.49-.12.21-.18.44-.18.7s.06.49.17.7c.11.21.27.37.46.49.19.12.42.18.66.18s.46-.06.65-.18c.04-.03.08-.06.12-.09.01.06.04.11.09.16.12.12.34.12.47,0,.06-.06.1-.14.1-.24v-1.03h0c0-.26-.06-.49-.18-.7-.12-.21-.28-.37-.48-.49ZM47.09,97.86c-.06.11-.15.21-.25.27-.21.12-.5.13-.72,0-.11-.06-.19-.15-.26-.27-.06-.11-.09-.24-.09-.39s.03-.28.09-.39c.06-.11.15-.2.26-.27.11-.06.23-.1.36-.1.14,0,.26.03.36.1s.19.15.25.27.09.25.09.39-.03.27-.09.39Z"/>
    <path class="st1" d="M49.73,96.08c-.19,0-.38.05-.54.14-.04.02-.07.05-.11.07-.01-.04-.04-.07-.06-.1-.11-.12-.36-.12-.48,0-.06.06-.09.14-.09.24v2.05c0,.1.03.18.09.24.04.04.11.09.23.09.13,0,.2-.05.24-.09.06-.06.08-.14.08-.23v-1.33c0-.11.03-.2.1-.27.06-.08.16-.13.28-.16.13-.03.27-.04.43-.01.05,0,.1.01.14,0,.06,0,.11-.02.16-.05.05-.04.09-.1.1-.17.03-.13-.02-.25-.15-.33-.1-.07-.24-.1-.43-.1Z"/>
    <path class="st1" d="M52.49,96.27c-.38-.23-.96-.23-1.34,0-.2.12-.35.28-.47.49-.11.2-.17.44-.17.71s.06.5.18.71c.12.21.28.37.49.49.21.12.45.17.71.17.15,0,.31-.03.47-.08.17-.06.3-.13.41-.22.09-.08.11-.17.11-.23,0-.08-.04-.16-.12-.22-.06-.05-.13-.07-.21-.07-.07,0-.14.03-.21.08-.05.04-.12.07-.21.11-.25.09-.48.05-.65-.05-.11-.07-.2-.16-.27-.27-.02-.04-.04-.08-.06-.13h1.58c.09,0,.17-.03.23-.09.06-.06.09-.13.09-.21,0-.26-.05-.49-.15-.68-.1-.2-.24-.36-.43-.48ZM51.22,97.06c.06-.11.14-.2.24-.27.19-.12.51-.13.7-.01.09.06.16.14.21.25.02.04.03.08.05.12h-1.23s.02-.06.04-.09Z"/>
    <path class="st1" d="M27.41,96.12c-.17,0-.31.14-.31.31s.14.31.31.31.31-.14.31-.31-.14-.31-.31-.31Z"/>
    <path class="st1" d="M27.41,97.15c-.17,0-.31.14-.31.31s.14.31.31.31.31-.14.31-.31-.14-.31-.31-.31Z"/>
    <path class="st1" d="M27.41,98.18c-.17,0-.31.14-.31.31s.14.31.31.31.31-.14.31-.31-.14-.31-.31-.31Z"/>
  </g>
</svg>