<svg width="16" height="16" viewBox="0 0 16 16" fill="none" xmlns="http://www.w3.org/2000/svg">
<path fill-rule="evenodd" clip-rule="evenodd" d="M3.94279 3.3333H11.9401C13.2595 3.3333 14.3335 4.38863 14.3335 5.68596V7.3333C14.3335 7.70196 14.0355 7.99996 13.6668 7.99996C13.2981 7.99996 13.0001 7.70196 13.0001 7.3333V5.68596C13.0001 5.12463 12.5248 4.66663 11.9401 4.66663H3.94279L4.80479 5.52863C5.06479 5.7893 5.06479 6.21063 4.80479 6.4713C4.67479 6.6013 4.50413 6.66663 4.33346 6.66663C4.16279 6.66663 3.99213 6.6013 3.86213 6.4713L1.86213 4.4713C1.60146 4.21063 1.60146 3.7893 1.86213 3.52863L3.86213 1.52863C4.12213 1.26796 4.54413 1.26796 4.80479 1.52863C5.06479 1.7893 5.06479 2.21063 4.80479 2.4713L3.94279 3.3333ZM11.1953 9.52863C11.456 9.26796 11.8773 9.26796 12.138 9.52863L14.138 11.5286C14.3987 11.7893 14.3987 12.2106 14.138 12.4713L12.138 14.4713C12.008 14.6013 11.8373 14.6666 11.6667 14.6666C11.496 14.6666 11.3253 14.6013 11.1953 14.4713C10.9347 14.2106 10.9347 13.7893 11.1953 13.5286L12.0573 12.6666H4.05999C2.73999 12.6666 1.66666 11.6113 1.66666 10.314V8.66663C1.66666 8.29796 1.96533 7.99996 2.33333 7.99996C2.70133 7.99996 2.99999 8.29796 2.99999 8.66663V10.314C2.99999 10.876 3.47533 11.3333 4.05999 11.3333H12.0573L11.1953 10.4713C10.9347 10.2106 10.9347 9.7893 11.1953 9.52863Z" fill="#FF6A00"/>
</svg>
