<svg width="14" height="14" viewBox="0 0 14 14" fill="none" xmlns="http://www.w3.org/2000/svg">
<path fill-rule="evenodd" clip-rule="evenodd" d="M9.66666 6.33331H7.66666V4.33331C7.66666 3.96465 7.36799 3.66665 6.99999 3.66665C6.63199 3.66665 6.33333 3.96465 6.33333 4.33331V6.99998C6.33333 7.36865 6.63199 7.66665 6.99999 7.66665H9.66666C10.0353 7.66665 10.3333 7.36865 10.3333 6.99998C10.3333 6.63131 10.0353 6.33331 9.66666 6.33331ZM6.99999 12.3333C4.05933 12.3333 1.66666 9.94065 1.66666 6.99998C1.66666 4.05931 4.05933 1.66665 6.99999 1.66665C9.94066 1.66665 12.3333 4.05931 12.3333 6.99998C12.3333 9.94065 9.94066 12.3333 6.99999 12.3333ZM7 0.333313C3.324 0.333313 0.333328 3.32398 0.333328 6.99998C0.333328 10.676 3.324 13.6666 7 13.6666C10.676 13.6666 13.6667 10.676 13.6667 6.99998C13.6667 3.32398 10.676 0.333313 7 0.333313Z" fill="white"/>
</svg>
