<svg width="83" height="30" viewBox="0 0 83 30" fill="none" xmlns="http://www.w3.org/2000/svg">
<path fill-rule="evenodd" clip-rule="evenodd" d="M14.9998 3.74988C18.226 3.74988 21.0685 5.82613 22.0935 8.80613C25.1423 9.21988 27.4998 11.8399 27.4998 14.9999C27.4998 16.5261 26.9448 17.9949 25.9373 19.1361C25.6898 19.4149 25.346 19.5586 24.9998 19.5586C24.706 19.5586 24.411 19.4561 24.1723 19.2461C23.656 18.7874 23.606 17.9986 24.0635 17.4799C24.6673 16.7974 24.9998 15.9149 24.9998 14.9999C24.9998 12.9324 23.3173 11.2499 21.2498 11.2499H21.1248C20.5298 11.2499 20.0173 10.8299 19.8998 10.2461C19.4323 7.93113 17.3723 6.24988 14.9998 6.24988C12.6285 6.24988 10.5673 7.93113 10.101 10.2461C9.98351 10.8299 9.46976 11.2499 8.87476 11.2499H8.74976C6.68226 11.2499 4.99976 12.9324 4.99976 14.9999C4.99976 15.9149 5.33226 16.7974 5.93726 17.4799C6.39351 17.9986 6.34476 18.7874 5.82726 19.2461C5.30976 19.7036 4.51976 19.6524 4.06351 19.1361C3.05476 17.9949 2.49976 16.5261 2.49976 14.9999C2.49976 11.8399 4.85726 9.21988 7.90601 8.80613C8.93226 5.82613 11.7748 3.74988 14.9998 3.74988ZM14.1313 14.1C14.6238 13.63 15.4025 13.6338 15.8838 14.1163L19.6338 17.8663C20.1225 18.355 20.1225 19.145 19.6338 19.6338C19.39 19.8775 19.07 20 18.75 20C18.43 20 18.11 19.8775 17.8663 19.6338L16.25 18.0175V25C16.25 25.6913 15.69 26.25 15 26.25C14.31 26.25 13.75 25.6913 13.75 25V17.945L12.1188 19.52C11.6225 20.0013 10.8313 19.985 10.3513 19.4888C9.87126 18.9913 9.88501 18.2013 10.3813 17.7213L14.1313 14.1Z" fill="#2E3A59"/>
<path d="M39.266 17.06C38.914 17.06 38.592 17.002 38.3 16.886C38.008 16.766 37.756 16.6 37.544 16.388C37.336 16.172 37.174 15.918 37.058 15.626C36.942 15.33 36.884 15.006 36.884 14.654C36.884 14.302 36.942 13.98 37.058 13.688C37.174 13.396 37.336 13.144 37.544 12.932C37.756 12.716 38.008 12.55 38.3 12.434C38.592 12.314 38.914 12.254 39.266 12.254C39.618 12.254 39.938 12.314 40.226 12.434C40.518 12.55 40.77 12.716 40.982 12.932C41.194 13.144 41.358 13.396 41.474 13.688C41.59 13.98 41.648 14.302 41.648 14.654C41.648 15.006 41.59 15.33 41.474 15.626C41.358 15.918 41.194 16.172 40.982 16.388C40.77 16.6 40.518 16.766 40.226 16.886C39.938 17.002 39.618 17.06 39.266 17.06ZM39.266 16.496C39.526 16.496 39.764 16.45 39.98 16.358C40.2 16.262 40.39 16.132 40.55 15.968C40.71 15.8 40.832 15.604 40.916 15.38C41.004 15.156 41.048 14.914 41.048 14.654C41.048 14.394 41.004 14.152 40.916 13.928C40.832 13.704 40.71 13.51 40.55 13.346C40.39 13.178 40.2 13.048 39.98 12.956C39.764 12.864 39.526 12.818 39.266 12.818C39.006 12.818 38.766 12.864 38.546 12.956C38.33 13.048 38.142 13.178 37.982 13.346C37.826 13.51 37.704 13.704 37.616 13.928C37.528 14.152 37.484 14.394 37.484 14.654C37.484 14.914 37.528 15.156 37.616 15.38C37.704 15.604 37.826 15.8 37.982 15.968C38.142 16.132 38.33 16.262 38.546 16.358C38.766 16.45 39.006 16.496 39.266 16.496ZM42.9374 17C42.8494 17 42.7754 16.97 42.7154 16.91C42.6554 16.85 42.6254 16.776 42.6254 16.688V12.626C42.6254 12.534 42.6554 12.46 42.7154 12.404C42.7754 12.344 42.8494 12.314 42.9374 12.314H44.0174C44.3174 12.314 44.5834 12.378 44.8154 12.506C45.0474 12.63 45.2274 12.802 45.3554 13.022C45.4874 13.242 45.5534 13.498 45.5534 13.79C45.5534 14.062 45.4874 14.304 45.3554 14.516C45.2274 14.728 45.0474 14.894 44.8154 15.014C44.5834 15.134 44.3174 15.194 44.0174 15.194H43.2494V16.688C43.2494 16.776 43.2194 16.85 43.1594 16.91C43.1034 16.97 43.0294 17 42.9374 17ZM45.4274 17C45.3714 17 45.3194 16.988 45.2714 16.964C45.2274 16.94 45.1894 16.902 45.1574 16.85L44.0774 15.11L44.6834 14.936L45.6674 16.52C45.7394 16.636 45.7494 16.746 45.6974 16.85C45.6454 16.95 45.5554 17 45.4274 17ZM43.2494 14.618H44.0174C44.2014 14.618 44.3634 14.584 44.5034 14.516C44.6434 14.444 44.7534 14.346 44.8334 14.222C44.9134 14.094 44.9534 13.95 44.9534 13.79C44.9534 13.614 44.9134 13.458 44.8334 13.322C44.7534 13.186 44.6434 13.08 44.5034 13.004C44.3634 12.928 44.2014 12.89 44.0174 12.89H43.2494V14.618Z" fill="#222B45"/>
<path d="M62 7.64999V8.64999C62.3557 8.64999 62.6846 8.46108 62.8638 8.15386L62 7.64999ZM64.1 4.04999V3.04999C63.7443 3.04999 63.4154 3.2389 63.2362 3.54612L64.1 4.04999ZM71.9 4.04999L72.7638 3.54612C72.5846 3.2389 72.2557 3.04999 71.9 3.04999V4.04999ZM74 7.64999L73.1362 8.15386C73.3154 8.46108 73.6443 8.64999 74 8.64999V7.64999ZM57 22.95V10.65H55V22.95H57ZM59 8.64999H62V6.64999H59V8.64999ZM62.8638 8.15386L64.9638 4.55386L63.2362 3.54612L61.1362 7.14612L62.8638 8.15386ZM64.1 5.04999H71.9V3.04999H64.1V5.04999ZM71.0362 4.55386L73.1362 8.15386L74.8638 7.14612L72.7638 3.54612L71.0362 4.55386ZM74 8.64999H77V6.64999H74V8.64999ZM79 10.65V22.95H81V10.65H79ZM79 22.95C79 24.0546 78.1046 24.95 77 24.95V26.95C79.2091 26.95 81 25.1591 81 22.95H79ZM77 8.64999C78.1046 8.64999 79 9.54542 79 10.65H81C81 8.44085 79.2091 6.64999 77 6.64999V8.64999ZM57 10.65C57 9.54542 57.8954 8.64999 59 8.64999V6.64999C56.7909 6.64999 55 8.44084 55 10.65H57ZM59 24.95C57.8954 24.95 57 24.0546 57 22.95H55C55 25.1591 56.7909 26.95 59 26.95V24.95ZM71.5 16.05C71.5 17.983 69.933 19.55 68 19.55V21.55C71.0376 21.55 73.5 19.0876 73.5 16.05H71.5ZM68 19.55C66.067 19.55 64.5 17.983 64.5 16.05H62.5C62.5 19.0876 64.9624 21.55 68 21.55V19.55ZM64.5 16.05C64.5 14.117 66.067 12.55 68 12.55V10.55C64.9624 10.55 62.5 13.0124 62.5 16.05H64.5ZM68 12.55C69.933 12.55 71.5 14.117 71.5 16.05H73.5C73.5 13.0124 71.0376 10.55 68 10.55V12.55ZM77 24.95H59V26.95H77V24.95Z" fill="#2E3A59"/>
<path d="M69.7502 15.4999H68.2502V13.9999C68.2502 13.8617 68.1382 13.7499 68.0002 13.7499C67.8622 13.7499 67.7502 13.8617 67.7502 13.9999V15.4999H66.2502C66.1122 15.4999 66.0002 15.6117 66.0002 15.7499C66.0002 15.8882 66.1122 15.9999 66.2502 15.9999H67.7502V17.4999C67.7502 17.6382 67.8622 17.7499 68.0002 17.7499C68.1382 17.7499 68.2502 17.6382 68.2502 17.4999V15.9999H69.7502C69.8882 15.9999 70.0002 15.8882 70.0002 15.7499C70.0002 15.6117 69.8882 15.4999 69.7502 15.4999" stroke="#2E3A59"/>
</svg>
