<svg width="16" height="16" viewBox="0 0 16 16" fill="none" xmlns="http://www.w3.org/2000/svg">
<g id=" clock">
<path id="Icon" fill-rule="evenodd" clip-rule="evenodd" d="M10.6667 7.33334H8.66666V5.33334C8.66666 4.96468 8.36799 4.66668 7.99999 4.66668C7.63199 4.66668 7.33333 4.96468 7.33333 5.33334V8.00001C7.33333 8.36868 7.63199 8.66668 7.99999 8.66668H10.6667C11.0353 8.66668 11.3333 8.36868 11.3333 8.00001C11.3333 7.63134 11.0353 7.33334 10.6667 7.33334ZM7.99999 13.3333C5.05933 13.3333 2.66666 10.9407 2.66666 8.00001C2.66666 5.05934 5.05933 2.66668 7.99999 2.66668C10.9407 2.66668 13.3333 5.05934 13.3333 8.00001C13.3333 10.9407 10.9407 13.3333 7.99999 13.3333ZM8 1.33334C4.324 1.33334 1.33333 4.32401 1.33333 8.00001C1.33333 11.676 4.324 14.6667 8 14.6667C11.676 14.6667 14.6667 11.676 14.6667 8.00001C14.6667 4.32401 11.676 1.33334 8 1.33334Z" fill="white"/>
</g>
</svg>
